<svg xmlns="http://www.w3.org/2000/svg" xmlns:xlink="http://www.w3.org/1999/xlink" id="processonSvg1000" viewBox="20.01171875 17.01171875 969.5 661.0" width="969.5" height="661.0"><defs id="ProcessOnDefs1001"><marker id="ProcessOnMarker1022" markerUnits="userSpaceOnUse" orient="auto" markerWidth="16.23606797749979" markerHeight="10.550836550532098" viewBox="-1.0 -1.3763819204711736 16.23606797749979 10.550836550532098" refX="-1.0" refY="3.8990363547948754"><path id="ProcessOnPath1023" d="M12.0 3.8990363547948754L0.0 7.798072709589751V0.0Z" stroke="#994c00" stroke-width="2.0" fill="#994c00" transform="matrix(1.0,0.0,0.0,1.0,0.0,0.0)"/></marker><marker id="ProcessOnMarker1039" markerUnits="userSpaceOnUse" orient="auto" markerWidth="16.23606797749979" markerHeight="10.550836550532098" viewBox="-1.0 -1.3763819204711736 16.23606797749979 10.550836550532098" refX="-1.0" refY="3.8990363547948754"><path id="ProcessOnPath1040" d="M12.0 3.8990363547948754L0.0 7.798072709589751V0.0Z" stroke="#994c00" stroke-width="2.0" fill="#994c00" transform="matrix(1.0,0.0,0.0,1.0,0.0,0.0)"/></marker><marker id="ProcessOnMarker1060" markerUnits="userSpaceOnUse" orient="auto" markerWidth="16.23606797749979" markerHeight="10.550836550532098" viewBox="-1.0 -1.3763819204711736 16.23606797749979 10.550836550532098" refX="-1.0" refY="3.8990363547948754"><path id="ProcessOnPath1061" d="M12.0 3.8990363547948754L0.0 7.798072709589751V0.0Z" stroke="#994c00" stroke-width="2.0" fill="#994c00" transform="matrix(1.0,0.0,0.0,1.0,0.0,0.0)"/></marker><marker id="ProcessOnMarker1064" markerUnits="userSpaceOnUse" orient="auto" markerWidth="16.23606797749979" markerHeight="10.550836550532098" viewBox="-1.0 -1.3763819204711736 16.23606797749979 10.550836550532098" refX="-1.0" refY="3.8990363547948754"><path id="ProcessOnPath1065" d="M12.0 3.8990363547948754L0.0 7.798072709589751V0.0Z" stroke="#994c00" stroke-width="2.0" fill="#994c00" transform="matrix(1.0,0.0,0.0,1.0,0.0,0.0)"/></marker><marker id="ProcessOnMarker1068" markerUnits="userSpaceOnUse" orient="auto" markerWidth="16.23606797749979" markerHeight="10.550836550532098" viewBox="-1.0 -1.3763819204711736 16.23606797749979 10.550836550532098" refX="-1.0" refY="3.8990363547948754"><path id="ProcessOnPath1069" d="M12.0 3.8990363547948754L0.0 7.798072709589751V0.0Z" stroke="#994c00" stroke-width="2.0" fill="#994c00" transform="matrix(1.0,0.0,0.0,1.0,0.0,0.0)"/></marker><marker id="ProcessOnMarker1076" markerUnits="userSpaceOnUse" orient="auto" markerWidth="16.23606797749979" markerHeight="10.550836550532098" viewBox="-1.0 -1.3763819204711736 16.23606797749979 10.550836550532098" refX="-1.0" refY="3.8990363547948754"><path id="ProcessOnPath1077" d="M12.0 3.8990363547948754L0.0 7.798072709589751V0.0Z" stroke="#994c00" stroke-width="2.0" fill="#994c00" transform="matrix(1.0,0.0,0.0,1.0,0.0,0.0)"/></marker><marker id="ProcessOnMarker1084" markerUnits="userSpaceOnUse" orient="auto" markerWidth="16.23606797749979" markerHeight="10.550836550532098" viewBox="-1.0 -1.3763819204711736 16.23606797749979 10.550836550532098" refX="-1.0" refY="3.8990363547948754"><path id="ProcessOnPath1085" d="M12.0 3.8990363547948754L0.0 7.798072709589751V0.0Z" stroke="#323232" stroke-width="2.0" fill="#323232" transform="matrix(1.0,0.0,0.0,1.0,0.0,0.0)"/></marker><marker id="ProcessOnMarker1121" markerUnits="userSpaceOnUse" orient="auto" markerWidth="16.23606797749979" markerHeight="10.550836550532098" viewBox="-1.0 -1.3763819204711736 16.23606797749979 10.550836550532098" refX="-1.0" refY="3.8990363547948754"><path id="ProcessOnPath1122" d="M12.0 3.8990363547948754L0.0 7.798072709589751V0.0Z" stroke="#323232" stroke-width="2.0" fill="#323232" transform="matrix(1.0,0.0,0.0,1.0,0.0,0.0)"/></marker></defs><g id="ProcessOnG1002"><path id="ProcessOnPath1003" d="M20.01171875 17.01171875H989.51171875V678.01171875H20.01171875V17.01171875Z" fill="none"/><g id="ProcessOnG1004"><g id="ProcessOnG1005" transform="matrix(1.0,0.0,0.0,1.0,40.01171875,37.01171875)" opacity="1.0"><path id="ProcessOnPath1006" d="M0.0 0.0L100.0 0.0L100.0 70.0L0.0 70.0Z" stroke="#323232" stroke-width="2.0" stroke-dasharray="none" opacity="1.0" fill="#008489"/><g id="ProcessOnG1007" transform="matrix(1.0,0.0,0.0,1.0,10.0,18.75)"><text id="ProcessOnText1008" fill="#ffffff" font-size="13" x="39.0" y="13.325" font-family="微软雅黑" font-weight="normal" font-style="normal" text-decoration="none" family="微软雅黑" text-anchor="middle" size="13">主页</text><text id="ProcessOnText1009" fill="#ffffff" font-size="13" x="39.0" y="29.575" font-family="微软雅黑" font-weight="normal" font-style="normal" text-decoration="none" family="微软雅黑" text-anchor="middle" size="13">index.vue</text></g></g><g id="ProcessOnG1010" transform="matrix(1.0,0.0,0.0,1.0,396.01171875,37.01171875)" opacity="1.0"><path id="ProcessOnPath1011" d="M0.0 0.0L100.0 0.0L100.0 70.0L0.0 70.0Z" stroke="#323232" stroke-width="2.0" stroke-dasharray="none" opacity="1.0" fill="#008489"/><g id="ProcessOnG1012" transform="matrix(1.0,0.0,0.0,1.0,10.0,18.75)"><text id="ProcessOnText1013" fill="#ffffff" font-size="13" x="39.0" y="13.325" font-family="微软雅黑" font-weight="normal" font-style="normal" text-decoration="none" family="微软雅黑" text-anchor="middle" size="13">搜索页</text><text id="ProcessOnText1014" fill="#ffffff" font-size="13" x="39.0" y="29.575" font-family="微软雅黑" font-weight="normal" font-style="normal" text-decoration="none" family="微软雅黑" text-anchor="middle" size="13">search.vue</text></g></g><g id="ProcessOnG1015" transform="matrix(1.0,0.0,0.0,1.0,553.01171875,150.01171875)" opacity="1.0"><path id="ProcessOnPath1016" d="M0.0 0.0L122.0 0.0L122.0 70.0L0.0 70.0Z" stroke="#323232" stroke-width="2.0" stroke-dasharray="none" opacity="1.0" fill="#008489"/><g id="ProcessOnG1017" transform="matrix(1.0,0.0,0.0,1.0,10.0,18.75)"><text id="ProcessOnText1018" fill="#ffffff" font-size="13" x="50.0" y="13.325" font-family="微软雅黑" font-weight="normal" font-style="normal" text-decoration="none" family="微软雅黑" text-anchor="middle" size="13">房源列表页</text><text id="ProcessOnText1019" fill="#ffffff" font-size="13" x="50.0" y="29.575" font-family="微软雅黑" font-weight="normal" font-style="normal" text-decoration="none" family="微软雅黑" text-anchor="middle" size="13">houseList.vue</text></g></g><g id="ProcessOnG1020"><path id="ProcessOnPath1021" d="M496.01171875 72.01171875L614.01171875 72.01171875L614.01171875 134.7756507725002" stroke="#994c00" stroke-width="2.0" stroke-dasharray="none" fill="none" marker-end="url(#ProcessOnMarker1022)"/></g><g id="ProcessOnG1024" transform="matrix(1.0,0.0,0.0,1.0,219.51171875,347.01171875)" opacity="1.0"><path id="ProcessOnPath1025" d="M0.0 0.0L155.0 0.0L155.0 70.0L0.0 70.0Z" stroke="#323232" stroke-width="2.0" stroke-dasharray="none" opacity="1.0" fill="#008489"/><g id="ProcessOnG1026" transform="matrix(1.0,0.0,0.0,1.0,10.0,18.75)"><text id="ProcessOnText1027" fill="#ffffff" font-size="13" x="66.5" y="13.325" font-family="微软雅黑" font-weight="normal" font-style="normal" text-decoration="none" family="微软雅黑" text-anchor="middle" size="13">房源详情页</text><text id="ProcessOnText1028" fill="#ffffff" font-size="13" x="66.5" y="29.575" font-family="微软雅黑" font-weight="normal" font-style="normal" text-decoration="none" family="微软雅黑" text-anchor="middle" size="13">houseDetail.vue</text></g></g><g id="ProcessOnG1029" transform="matrix(1.0,0.0,0.0,1.0,405.01171875,150.01171875)" opacity="1.0"><path id="ProcessOnPath1030" d="M0.0 0.0L107.0 0.0L107.0 41.0L0.0 41.0Z" stroke="none" stroke-width="0.0" stroke-dasharray="none" opacity="1.0" fill="none"/><g id="ProcessOnG1031" transform="matrix(1.0,0.0,0.0,1.0,0.0,10.5)"><text id="ProcessOnText1032" fill="#008489" font-size="16" x="52.5" y="16.4" font-family="微软雅黑" font-weight="normal" font-style="normal" text-decoration="none" family="微软雅黑" text-anchor="middle" size="16">包含特定房源</text></g></g><g id="ProcessOnG1033" transform="matrix(1.0,0.0,0.0,1.0,482.01171875,37.01171875)" opacity="1.0"><path id="ProcessOnPath1034" d="M0.0 0.0L160.0 0.0L160.0 40.0L0.0 40.0Z" stroke="none" stroke-width="0.0" stroke-dasharray="none" opacity="1.0" fill="none"/><g id="ProcessOnG1035" transform="matrix(1.0,0.0,0.0,1.0,0.0,10.0)"><text id="ProcessOnText1036" fill="#008489" font-size="16" x="79.0" y="16.4" font-family="微软雅黑" font-weight="normal" font-style="normal" text-decoration="none" family="微软雅黑" text-anchor="middle" size="16">筛选结果并显示</text></g></g><g id="ProcessOnG1037"><path id="ProcessOnPath1038" d="M140.01171875 72.01171875L268.01171875 72.01171875L268.01171875 72.01171875L380.7756507725002 72.01171875" stroke="#994c00" stroke-width="2.0" stroke-dasharray="none" fill="none" marker-end="url(#ProcessOnMarker1039)"/></g><g id="ProcessOnG1041" transform="matrix(1.0,0.0,0.0,1.0,158.01171875,37.01171875)" opacity="1.0"><path id="ProcessOnPath1042" d="M0.0 0.0L211.0 0.0L211.0 40.0L0.0 40.0Z" stroke="none" stroke-width="0.0" stroke-dasharray="none" opacity="1.0" fill="none"/><g id="ProcessOnG1043" transform="matrix(1.0,0.0,0.0,1.0,0.0,10.0)"><text id="ProcessOnText1044" fill="#008489" font-size="16" x="104.5" y="16.4" font-family="微软雅黑" font-weight="normal" font-style="normal" text-decoration="none" family="微软雅黑" text-anchor="middle" size="16">包含【搜索模块】，点击进入</text></g></g><g id="ProcessOnG1045" transform="matrix(1.0,0.0,0.0,1.0,83.01171875,150.51171875)" opacity="1.0"><path id="ProcessOnPath1046" d="M0.0 0.0L160.0 0.0L160.0 40.0L0.0 40.0Z" stroke="none" stroke-width="0.0" stroke-dasharray="none" opacity="1.0" fill="none"/><g id="ProcessOnG1047" transform="matrix(1.0,0.0,0.0,1.0,0.0,10.0)"><text id="ProcessOnText1048" fill="#008489" font-size="16" x="79.0" y="16.4" font-family="微软雅黑" font-weight="normal" font-style="normal" text-decoration="none" family="微软雅黑" text-anchor="middle" size="16">展示推荐房源</text></g></g><g id="ProcessOnG1049" transform="matrix(1.0,0.0,0.0,1.0,553.01171875,245.51171875)" opacity="1.0"><path id="ProcessOnPath1050" d="M0.0 0.0L122.0 0.0L122.0 65.5L0.0 65.5Z" stroke="#323232" stroke-width="2.0" stroke-dasharray="none" opacity="1.0" fill="#008489"/><g id="ProcessOnG1051" transform="matrix(1.0,0.0,0.0,1.0,10.0,16.5)"><text id="ProcessOnText1052" fill="#ffffff" font-size="13" x="50.0" y="13.325" font-family="微软雅黑" font-weight="normal" font-style="normal" text-decoration="none" family="微软雅黑" text-anchor="middle" size="13">收藏页</text><text id="ProcessOnText1053" fill="#ffffff" font-size="13" x="50.0" y="29.575" font-family="微软雅黑" font-weight="normal" font-style="normal" text-decoration="none" family="微软雅黑" text-anchor="middle" size="13">wish.vue</text></g></g><g id="ProcessOnG1054" transform="matrix(1.0,0.0,0.0,1.0,252.01171875,140.01171875)" opacity="1.0"><path id="ProcessOnPath1055" d="M0.0 45.0C0.0 -15.0 90.0 -15.0 90.0 45.0C90.0 105.0 0.0 105.0 0.0 45.0Z" stroke="#323232" stroke-width="2.0" stroke-dasharray="none" opacity="1.0" fill="#008489"/><g id="ProcessOnG1056" transform="matrix(1.0,0.0,0.0,1.0,10.0,36.875)"><text id="ProcessOnText1057" fill="#ffffff" font-size="13" x="34.0" y="13.325" font-family="微软雅黑" font-weight="normal" font-style="normal" text-decoration="none" family="微软雅黑" text-anchor="middle" size="13">房源</text></g></g><g id="ProcessOnG1058"><path id="ProcessOnPath1059" d="M90.01171875 107.01171875L90.01171875 185.01171875L236.7756507725002 185.01171875" stroke="#994c00" stroke-width="2.0" stroke-dasharray="none" fill="none" marker-end="url(#ProcessOnMarker1060)"/></g><g id="ProcessOnG1062"><path id="ProcessOnPath1063" d="M553.01171875 185.01171875L447.51171875 185.01171875L447.51171875 185.01171875L357.2477867274998 185.01171875" stroke="#994c00" stroke-width="2.0" stroke-dasharray="none" fill="none" marker-end="url(#ProcessOnMarker1064)"/></g><g id="ProcessOnG1066"><path id="ProcessOnPath1067" d="M297.01171875 230.01171875L297.01171875 288.51171875L297.01171875 288.51171875L297.01171875 331.7756507725002" stroke="#994c00" stroke-width="2.0" stroke-dasharray="none" fill="none" marker-end="url(#ProcessOnMarker1068)"/></g><g id="ProcessOnG1070" transform="matrix(1.0,0.0,0.0,1.0,328.01171875,240.51171875)" opacity="1.0"><path id="ProcessOnPath1071" d="M0.0 0.0L187.0 0.0L187.0 41.25L0.0 41.25Z" stroke="none" stroke-width="0.0" stroke-dasharray="none" opacity="1.0" fill="none"/><g id="ProcessOnG1072" transform="matrix(1.0,0.0,0.0,1.0,0.0,10.625)"><text id="ProcessOnText1073" fill="#008489" font-size="16" x="92.5" y="16.4" font-family="微软雅黑" font-weight="normal" font-style="normal" text-decoration="none" family="微软雅黑" text-anchor="middle" size="16">点击【红心】可收藏至</text></g></g><g id="ProcessOnG1074"><path id="ProcessOnPath1075" d="M297.01171875 230.01171875L297.01171875 278.26171875L537.7756507725002 278.26171875" stroke="#994c00" stroke-width="2.0" stroke-dasharray="none" fill="none" marker-end="url(#ProcessOnMarker1076)"/></g><g id="ProcessOnG1078" transform="matrix(1.0,0.0,0.0,1.0,261.01171875,297.01171875)" opacity="1.0"><path id="ProcessOnPath1079" d="M0.0 0.0L160.0 0.0L160.0 40.0L0.0 40.0Z" stroke="none" stroke-width="0.0" stroke-dasharray="none" opacity="1.0" fill="none"/><g id="ProcessOnG1080" transform="matrix(1.0,0.0,0.0,1.0,0.0,10.0)"><text id="ProcessOnText1081" fill="#008489" font-size="16" x="79.0" y="16.4" font-family="微软雅黑" font-weight="normal" font-style="normal" text-decoration="none" family="微软雅黑" text-anchor="middle" size="16">点击进入</text></g></g><g id="ProcessOnG1082"><path id="ProcessOnPath1083" d="M297.01171875 417.01171875L297.01171875 444.01171875L297.01171875 444.01171875L297.01171875 455.7756507725002" stroke="#323232" stroke-width="2.0" stroke-dasharray="none" fill="none" marker-end="url(#ProcessOnMarker1084)"/></g><g id="ProcessOnG1086" transform="matrix(1.0,0.0,0.0,1.0,277.01171875,431.01171875)" opacity="1.0"><path id="ProcessOnPath1087" d="M0.0 0.0L160.0 0.0L160.0 40.0L0.0 40.0Z" stroke="none" stroke-width="0.0" stroke-dasharray="none" opacity="1.0" fill="none"/><g id="ProcessOnG1088" transform="matrix(1.0,0.0,0.0,1.0,0.0,10.0)"><text id="ProcessOnText1089" fill="#008489" font-size="16" x="79.0" y="16.4" font-family="微软雅黑" font-weight="normal" font-style="normal" text-decoration="none" family="微软雅黑" text-anchor="middle" size="16">点击【预定】</text></g></g><g id="ProcessOnG1090" transform="matrix(1.0,0.0,0.0,1.0,219.51171875,471.01171875)" opacity="1.0"><path id="ProcessOnPath1091" d="M0.0 0.0L155.0 0.0L155.0 70.0L0.0 70.0Z" stroke="#323232" stroke-width="2.0" stroke-dasharray="none" opacity="1.0" fill="#008489"/><g id="ProcessOnG1092" transform="matrix(1.0,0.0,0.0,1.0,10.0,18.75)"><text id="ProcessOnText1093" fill="#ffffff" font-size="13" x="66.5" y="13.325" font-family="微软雅黑" font-weight="normal" font-style="normal" text-decoration="none" family="微软雅黑" text-anchor="middle" size="13">订单页</text><text id="ProcessOnText1094" fill="#ffffff" font-size="13" x="66.5" y="29.575" font-family="微软雅黑" font-weight="normal" font-style="normal" text-decoration="none" family="微软雅黑" text-anchor="middle" size="13">order.vue</text></g></g><g id="ProcessOnG1095" transform="matrix(1.0,0.0,0.0,1.0,219.51171875,588.01171875)" opacity="1.0"><path id="ProcessOnPath1096" d="M0.0 0.0L155.0 0.0L155.0 70.0L0.0 70.0Z" stroke="#323232" stroke-width="2.0" stroke-dasharray="none" opacity="1.0" fill="#008489"/><g id="ProcessOnG1097" transform="matrix(1.0,0.0,0.0,1.0,10.0,18.75)"><text id="ProcessOnText1098" fill="#ffffff" font-size="13" x="66.5" y="13.325" font-family="微软雅黑" font-weight="normal" font-style="normal" text-decoration="none" family="微软雅黑" text-anchor="middle" size="13">支付页</text><text id="ProcessOnText1099" fill="#ffffff" font-size="13" x="66.5" y="29.575" font-family="微软雅黑" font-weight="normal" font-style="normal" text-decoration="none" family="微软雅黑" text-anchor="middle" size="13">pay.vue</text></g></g><g id="ProcessOnG1100" transform="matrix(1.0,0.0,0.0,1.0,285.01171875,548.01171875)" opacity="1.0"><path id="ProcessOnPath1101" d="M0.0 0.0L160.0 0.0L160.0 40.0L0.0 40.0Z" stroke="none" stroke-width="0.0" stroke-dasharray="none" opacity="1.0" fill="none"/><g id="ProcessOnG1102" transform="matrix(1.0,0.0,0.0,1.0,0.0,10.0)"><text id="ProcessOnText1103" fill="#008489" font-size="16" x="79.0" y="16.4" font-family="微软雅黑" font-weight="normal" font-style="normal" text-decoration="none" family="微软雅黑" text-anchor="middle" size="16">填写【必须项】</text></g></g><g id="ProcessOnG1104" transform="matrix(1.0,0.0,0.0,1.0,814.51171875,533.01171875)" opacity="1.0"><path id="ProcessOnPath1105" d="M0.0 0.0L155.0 0.0L155.0 70.0L0.0 70.0Z" stroke="#323232" stroke-width="2.0" stroke-dasharray="none" opacity="1.0" fill="#008489"/><g id="ProcessOnG1106" transform="matrix(1.0,0.0,0.0,1.0,10.0,18.75)"><text id="ProcessOnText1107" fill="#ffffff" font-size="13" x="66.5" y="13.325" font-family="微软雅黑" font-weight="normal" font-style="normal" text-decoration="none" family="微软雅黑" text-anchor="middle" size="13">个人中心页</text><text id="ProcessOnText1108" fill="#ffffff" font-size="13" x="66.5" y="29.575" font-family="微软雅黑" font-weight="normal" font-style="normal" text-decoration="none" family="微软雅黑" text-anchor="middle" size="13">my.vue</text></g></g><g id="ProcessOnG1109" transform="matrix(1.0,0.0,0.0,1.0,814.51171875,328.01171875)" opacity="1.0"><path id="ProcessOnPath1110" d="M0.0 0.0L155.0 0.0L155.0 70.0L0.0 70.0Z" stroke="#323232" stroke-width="2.0" stroke-dasharray="none" opacity="1.0" fill="#008489"/><g id="ProcessOnG1111" transform="matrix(1.0,0.0,0.0,1.0,10.0,18.75)"><text id="ProcessOnText1112" fill="#ffffff" font-size="13" x="66.5" y="13.325" font-family="微软雅黑" font-weight="normal" font-style="normal" text-decoration="none" family="微软雅黑" text-anchor="middle" size="13">收件箱页</text><text id="ProcessOnText1113" fill="#ffffff" font-size="13" x="66.5" y="29.575" font-family="微软雅黑" font-weight="normal" font-style="normal" text-decoration="none" family="微软雅黑" text-anchor="middle" size="13">mes.vue</text></g></g><g id="ProcessOnG1114" transform="matrix(1.0,0.0,0.0,1.0,814.51171875,117.51171875)" opacity="1.0"><path id="ProcessOnPath1115" d="M0.0 0.0L155.0 0.0L155.0 70.0L0.0 70.0Z" stroke="#323232" stroke-width="2.0" stroke-dasharray="none" opacity="1.0" fill="#008489"/><g id="ProcessOnG1116" transform="matrix(1.0,0.0,0.0,1.0,10.0,18.75)"><text id="ProcessOnText1117" fill="#ffffff" font-size="13" x="66.5" y="13.325" font-family="微软雅黑" font-weight="normal" font-style="normal" text-decoration="none" family="微软雅黑" text-anchor="middle" size="13">故事页</text><text id="ProcessOnText1118" fill="#ffffff" font-size="13" x="66.5" y="29.575" font-family="微软雅黑" font-weight="normal" font-style="normal" text-decoration="none" family="微软雅黑" text-anchor="middle" size="13">story.vue</text></g></g><g id="ProcessOnG1119"><path id="ProcessOnPath1120" d="M297.01171875 541.01171875L297.01171875 564.51171875L297.01171875 564.51171875L297.01171875 572.7756507725002" stroke="#323232" stroke-width="2.0" stroke-dasharray="none" fill="none" marker-end="url(#ProcessOnMarker1121)"/></g></g></g></svg>