<svg id="kity_svg_6" xmlns="http://www.w3.org/2000/svg" xmlns:xlink="http://www.w3.org/1999/xlink" version="1.1" width="997" height="622" style="background: rgb(251, 251, 251); visibility: visible;" viewBox="0 0 997 622"><defs id="kity_defs_7"><linearGradient id="kity_linearGradient_17" x1="0" y1="0" x2="0" y2="1"><stop id="kity_stop_18" offset="0" stop-color="rgb(255, 255, 255)"></stop><stop id="kity_stop_19" offset="1" stop-color="rgb(204, 204, 204)"></stop></linearGradient><marker id="kity_marker_2" orient="auto" refX="6" refY="0" viewBox="-7 -7 14 14" markerWidth="7" markerHeight="7" markerUnits="userSpaceOnUse"><path id="kity_path_3" fill="rgb(115, 161, 191)" stroke="none" d="M6,0A6,6,0,1,1,-6,0A6,6,0,1,1,6,0"></path></marker></defs><g id="kity_g_8"><g id="minder1" text-rendering="geometricPrecision"><g id="minder_connect_group1"><path id="kity_path_224" fill="none" stroke="rgb(115, 161, 191)" stroke-width="1" d="M76.5,431.5A79,166,0,0,1,155.5,265.5"></path><path id="kity_path_232" fill="none" stroke="rgb(115, 161, 191)" stroke-width="1" d="M275.5,265.5C290.5,265.5,290.5,45.5,305.5,45.5L411.5,45.5"></path><path id="kity_path_240" fill="none" stroke="rgb(115, 161, 191)" stroke-width="1" d="M275.5,265.5C290.5,265.5,290.5,149.5,305.5,149.5L432.5,149.5"></path><path id="kity_path_248" fill="none" stroke="rgb(115, 161, 191)" stroke-width="1" d="M275.5,265.5C290.5,265.5,290.5,201.5,305.5,201.5L448.5,201.5"></path><path id="kity_path_256" fill="none" stroke="rgb(115, 161, 191)" stroke-width="1" d="M275.5,265.5C290.5,265.5,290.5,253.5,305.5,253.5L413.5,253.5"></path><path id="kity_path_264" fill="none" stroke="rgb(115, 161, 191)" stroke-width="1" d="M275.5,265.5C290.5,265.5,290.5,305.5,305.5,305.5L400.5,305.5"></path><path id="kity_path_272" fill="none" stroke="rgb(115, 161, 191)" stroke-width="1" d="M275.5,265.5C290.5,265.5,290.5,357.5,305.5,357.5L438.5,357.5"></path><path id="kity_path_280" fill="none" stroke="rgb(115, 161, 191)" stroke-width="1" d="M275.5,265.5C290.5,265.5,290.5,409.5,305.5,409.5L441.5,409.5"></path><path id="kity_path_288" fill="none" stroke="rgb(115, 161, 191)" stroke-width="1" d="M275.5,265.5C290.5,265.5,290.5,461.5,305.5,461.5L435.5,461.5"></path><path id="kity_path_296" fill="none" stroke="rgb(115, 161, 191)" stroke-width="1" d="M275.5,265.5C290.5,265.5,290.5,513.5,305.5,513.5L429.5,513.5"></path><path id="kity_path_312" fill="none" stroke="rgb(115, 161, 191)" stroke-width="1" d="M76.5,431.5A70,158,0,0,0,146.5,589.5"></path><path id="kity_path_344" fill="none" stroke="rgb(115, 161, 191)" stroke-width="1" d="M362.5,589.5C433,589.5,433,587.5,503.5,587.5L713.5,587.5"></path><path id="kity_path_352" fill="none" stroke="rgb(115, 161, 191)" stroke-width="1" d="M275.5,265.5C290.5,265.5,290.5,97.5,305.5,97.5L418.5,97.5"></path><path id="kity_path_360" fill="none" stroke="rgb(115, 161, 191)" stroke-width="1" d="M411.5,45.5C426.5,45.5,426.5,45.5,441.5,45.5L807.5,45.5"></path><path id="kity_path_368" fill="none" stroke="rgb(115, 161, 191)" stroke-width="1" d="M418.5,97.5C433.5,97.5,433.5,97.5,448.5,97.5L732.5,97.5"></path><path id="kity_path_376" fill="none" stroke="rgb(115, 161, 191)" stroke-width="1" d="M432.5,149.5C447.5,149.5,447.5,149.5,462.5,149.5L674.5,149.5"></path><path id="kity_path_384" fill="none" stroke="rgb(115, 161, 191)" stroke-width="1" d="M448.5,201.5C463.5,201.5,463.5,201.5,478.5,201.5L977.5,201.5"></path><path id="kity_path_392" fill="none" stroke="rgb(115, 161, 191)" stroke-width="1" d="M413.5,253.5C428.5,253.5,428.5,253.5,443.5,253.5L739.5,253.5"></path><path id="kity_path_400" fill="none" stroke="rgb(115, 161, 191)" stroke-width="1" d="M400.5,305.5C415.5,305.5,415.5,305.5,430.5,305.5L654.5,305.5"></path><path id="kity_path_408" fill="none" stroke="rgb(115, 161, 191)" stroke-width="1" d="M438.5,357.5C453.5,357.5,453.5,357.5,468.5,357.5L846.5,357.5"></path><path id="kity_path_416" fill="none" stroke="rgb(115, 161, 191)" stroke-width="1" d="M441.5,409.5C456.5,409.5,456.5,409.5,471.5,409.5L848.5,409.5"></path><path id="kity_path_424" fill="none" stroke="rgb(115, 161, 191)" stroke-width="1" d="M435.5,461.5C450.5,461.5,450.5,461.5,465.5,461.5L842.5,461.5"></path><path id="kity_path_432" fill="none" stroke="rgb(115, 161, 191)" stroke-width="1" d="M429.5,513.5C444.5,513.5,444.5,513.5,459.5,513.5L860.5,513.5"></path></g><g id="minder_node1"><path id="node_outline1" fill="rgb(115, 161, 191)" stroke="rgb(115, 161, 191)" d="M25.5,411.5h102a5,5,0,0,1,5,5v30a5,5,0,0,1,-5,5h-102a5,5,0,0,1,-5,-5v-30a5,5,0,0,1,5,-5z" stroke-width="3"></path><g id="node_text1" fill="white"><text id="kity_text_22" text-rendering="inherit" font-size="16" dy=".8em" y="421.09999990463257" x="44.5">App.vue</text></g><g id="node_priority1" display="none"><path id="kity_path_220" fill="#840023" stroke="none" d="M15,435c0,3.866,3.134,7,7,7h6c3.866,0,7,-3.134,7,-7V429H15V435z"></path><path id="kity_path_221" fill="#FF1200" stroke="none" d="M35,432c0,3.866,-3.134,7,-7,7H22c-3.866,0,-7,-3.134,-7,-7V429c0,-3.866,3.134,-7,7,-7h6c3.866,0,7,3.134,7,7V432z" opacity="0.8"></path><text id="kity_text_222" text-rendering="geometricPrecision" x="24" y="431.5" text-anchor="middle" font-style="italic" font-size="12" fill="white" dy="5">1</text></g></g><g id="kity_g_14" display="none"><path id="kity_path_15" fill="rgba(0, 92, 153, 0.5)" stroke="none" d="M253.5,449.5h104v20h-104z"></path><path id="kity_path_16" fill="none" stroke="rgb(0, 76, 128)" d="M253.5,449.5L357.5,449.5" stroke-width="1"></path></g><g id="minder_node24"><g id="node_expander23" style="cursor: pointer;"><path id="kity_path_229" fill="white" stroke="gray" d="M156.5,265.5A6,6,0,1,1,144.5,265.5A6,6,0,1,1,156.5,265.5"></path><path id="kity_path_230" fill="none" stroke="gray" d="M146,265.5L155,265.5"></path></g><path id="node_outline24" fill="rgb(238, 243, 246)" stroke="rgb(115, 161, 191)" d="M160.5,252.5h112a3,3,0,0,1,3,3v20a3,3,0,0,1,-3,3h-112a3,3,0,0,1,-3,-3v-20a3,3,0,0,1,3,-3z" stroke-width="1"></path><g id="node_text24" fill="black"><text id="kity_text_226" text-rendering="inherit" font-size="14" dy=".8em" y="256.40000009536743" x="177.5">router-view</text></g></g><g id="minder_node25"><g id="node_expander24" style="cursor: pointer;"><path id="kity_path_237" fill="white" stroke="gray" d="M315.5,31.5A6,6,0,1,1,303.5,31.5A6,6,0,1,1,315.5,31.5"></path><path id="kity_path_238" fill="none" stroke="gray" d="M305,31.5L314,31.5"></path></g><path id="node_outline25" fill="none" stroke="none" d="M320.5,20.5h86a5,5,0,0,1,5,5v12a5,5,0,0,1,-5,5h-86a5,5,0,0,1,-5,-5v-12a5,5,0,0,1,5,-5z" stroke-width="3"></path><g id="node_text25" fill="black"><text id="kity_text_234" text-rendering="inherit" font-size="12" dy=".8em" y="23.700000047683716" x="325.5">abyIndex.vue</text></g></g><g id="minder_node26"><g id="node_expander25" style="cursor: pointer;"><path id="kity_path_245" fill="white" stroke="gray" d="M315.5,135.5A6,6,0,1,1,303.5,135.5A6,6,0,1,1,315.5,135.5"></path><path id="kity_path_246" fill="none" stroke="gray" d="M305,135.5L314,135.5"></path></g><path id="node_outline26" fill="none" stroke="none" d="M320.5,124.5h107a5,5,0,0,1,5,5v12a5,5,0,0,1,-5,5h-107a5,5,0,0,1,-5,-5v-12a5,5,0,0,1,5,-5z" stroke-width="3"></path><g id="node_text26" fill="black"><text id="kity_text_242" text-rendering="inherit" font-size="12" dy=".8em" y="127.70000004768372" x="325.5">abyHouselist.vue</text></g></g><g id="minder_node27"><g id="node_expander26" style="cursor: pointer;"><path id="kity_path_253" fill="white" stroke="gray" d="M315.5,187.5A6,6,0,1,1,303.5,187.5A6,6,0,1,1,315.5,187.5"></path><path id="kity_path_254" fill="none" stroke="gray" d="M305,187.5L314,187.5"></path></g><path id="node_outline27" fill="none" stroke="none" d="M320.5,176.5h123a5,5,0,0,1,5,5v12a5,5,0,0,1,-5,5h-123a5,5,0,0,1,-5,-5v-12a5,5,0,0,1,5,-5z" stroke-width="3"></path><g id="node_text27" fill="black"><text id="kity_text_250" text-rendering="inherit" font-size="12" dy=".8em" y="179.70000004768372" x="325.5">abyHousedetail.vue</text></g></g><g id="minder_node28"><g id="node_expander27" style="cursor: pointer;"><path id="kity_path_261" fill="white" stroke="gray" d="M315.5,239.5A6,6,0,1,1,303.5,239.5A6,6,0,1,1,315.5,239.5"></path><path id="kity_path_262" fill="none" stroke="gray" d="M305,239.5L314,239.5"></path></g><path id="node_outline28" fill="none" stroke="none" d="M320.5,228.5h88a5,5,0,0,1,5,5v12a5,5,0,0,1,-5,5h-88a5,5,0,0,1,-5,-5v-12a5,5,0,0,1,5,-5z" stroke-width="3"></path><g id="node_text28" fill="black"><text id="kity_text_258" text-rendering="inherit" font-size="12" dy=".8em" y="231.70000004768372" x="325.5">abyOrder.vue</text></g></g><g id="minder_node29"><g id="node_expander28" style="cursor: pointer;"><path id="kity_path_269" fill="white" stroke="gray" d="M315.5,291.5A6,6,0,1,1,303.5,291.5A6,6,0,1,1,315.5,291.5"></path><path id="kity_path_270" fill="none" stroke="gray" d="M305,291.5L314,291.5"></path></g><path id="node_outline29" fill="none" stroke="none" d="M320.5,280.5h75a5,5,0,0,1,5,5v12a5,5,0,0,1,-5,5h-75a5,5,0,0,1,-5,-5v-12a5,5,0,0,1,5,-5z" stroke-width="3"></path><g id="node_text29" fill="black"><text id="kity_text_266" text-rendering="inherit" font-size="12" dy=".8em" y="283.7000000476837" x="325.5">abyPay.vue</text></g></g><g id="minder_node30"><g id="node_expander29" style="cursor: pointer;"><path id="kity_path_277" fill="white" stroke="gray" d="M315.5,343.5A6,6,0,1,1,303.5,343.5A6,6,0,1,1,315.5,343.5"></path><path id="kity_path_278" fill="none" stroke="gray" d="M305,343.5L314,343.5"></path></g><path id="node_outline30" fill="none" stroke="none" d="M320.5,332.5h113a5,5,0,0,1,5,5v12a5,5,0,0,1,-5,5h-113a5,5,0,0,1,-5,-5v-12a5,5,0,0,1,5,-5z" stroke-width="3"></path><g id="node_text30" fill="black"><text id="kity_text_274" text-rendering="inherit" font-size="12" dy=".8em" y="335.7000000476837" x="325.5">abyLove.vue(待做)</text></g></g><g id="minder_node31"><g id="node_expander30" style="cursor: pointer;"><path id="kity_path_285" fill="white" stroke="gray" d="M315.5,395.5A6,6,0,1,1,303.5,395.5A6,6,0,1,1,315.5,395.5"></path><path id="kity_path_286" fill="none" stroke="gray" d="M305,395.5L314,395.5"></path></g><path id="node_outline31" fill="none" stroke="none" d="M320.5,384.5h116a5,5,0,0,1,5,5v12a5,5,0,0,1,-5,5h-116a5,5,0,0,1,-5,-5v-12a5,5,0,0,1,5,-5z" stroke-width="3"></path><g id="node_text31" fill="black"><text id="kity_text_282" text-rendering="inherit" font-size="12" dy=".8em" y="387.7000000476837" x="325.5">abyStory.vue(待做)</text></g></g><g id="minder_node32"><g id="node_expander31" style="cursor: pointer;"><path id="kity_path_293" fill="white" stroke="gray" d="M315.5,447.5A6,6,0,1,1,303.5,447.5A6,6,0,1,1,315.5,447.5"></path><path id="kity_path_294" fill="none" stroke="gray" d="M305,447.5L314,447.5"></path></g><path id="node_outline32" fill="none" stroke="none" d="M320.5,436.5h110a5,5,0,0,1,5,5v12a5,5,0,0,1,-5,5h-110a5,5,0,0,1,-5,-5v-12a5,5,0,0,1,5,-5z" stroke-width="3"></path><g id="node_text32" fill="black"><text id="kity_text_290" text-rendering="inherit" font-size="12" dy=".8em" y="439.7000000476837" x="325.5">abyMes.vue(待做)</text></g></g><g id="minder_node33"><g id="node_expander32" style="cursor: pointer;"><path id="kity_path_301" fill="white" stroke="gray" d="M315.5,499.5A6,6,0,1,1,303.5,499.5A6,6,0,1,1,315.5,499.5"></path><path id="kity_path_302" fill="none" stroke="gray" d="M305,499.5L314,499.5"></path></g><path id="node_outline33" fill="none" stroke="none" d="M320.5,488.5h104a5,5,0,0,1,5,5v12a5,5,0,0,1,-5,5h-104a5,5,0,0,1,-5,-5v-12a5,5,0,0,1,5,-5z" stroke-width="3"></path><g id="node_text33" fill="black"><text id="kity_text_298" text-rendering="inherit" font-size="12" dy=".8em" y="491.7000000476837" x="325.5">abyMy.vue(待做)</text></g></g><g id="minder_node35"><g id="node_expander34" style="cursor: pointer;"><path id="kity_path_317" fill="white" stroke="gray" d="M375.5,589.5A6,6,0,1,1,363.5,589.5A6,6,0,1,1,375.5,589.5"></path><path id="kity_path_318" fill="none" stroke="gray" d="M365,589.5L374,589.5"></path></g><path id="node_outline35" fill="rgb(238, 243, 246)" stroke="rgb(115, 161, 191)" d="M151.5,576.5h208a3,3,0,0,1,3,3v20a3,3,0,0,1,-3,3h-208a3,3,0,0,1,-3,-3v-20a3,3,0,0,1,3,-3z" stroke-width="1"></path><g id="node_text35" fill="black"><text id="kity_text_314" text-rendering="inherit" font-size="14" dy=".8em" y="580.4000000953674" x="168.5">abyFooter.vue(公共footer)</text></g></g><g id="minder_node39" opacity="1"><g id="node_expander38" style="cursor: pointer;" display="none"><path id="kity_path_349" fill="white" stroke="gray" d="M725.5,573.5A6,6,0,1,1,713.5,573.5A6,6,0,1,1,725.5,573.5"></path><path id="kity_path_350" fill="none" stroke="gray"></path></g><path id="node_outline39" fill="none" stroke="none" d="M518.5,562.5h190a5,5,0,0,1,5,5v12a5,5,0,0,1,-5,5h-190a5,5,0,0,1,-5,-5v-12a5,5,0,0,1,5,-5z" stroke-width="3"></path><g id="node_text39" fill="black"><text id="kity_text_346" text-rendering="inherit" font-size="12" dy=".8em" y="565.7000000476837" x="523.5">功能：实现app主界面的路由跳转</text></g></g><g id="kity_g_12" display="none"><path id="kity_path_13" fill="none" stroke="rgb(66, 94, 112)" d="M151.5,576.5h208a3,3,0,0,1,3,3v20a3,3,0,0,1,-3,3h-208a3,3,0,0,1,-3,-3v-20a3,3,0,0,1,3,-3z" stroke-width="5"></path></g><g id="minder_node40"><g id="node_expander39" style="cursor: pointer;"><path id="kity_path_357" fill="white" stroke="gray" d="M315.5,83.5A6,6,0,1,1,303.5,83.5A6,6,0,1,1,315.5,83.5"></path><path id="kity_path_358" fill="none" stroke="gray" d="M305,83.5L314,83.5"></path></g><path id="node_outline40" fill="none" stroke="none" d="M320.5,72.5h93a5,5,0,0,1,5,5v12a5,5,0,0,1,-5,5h-93a5,5,0,0,1,-5,-5v-12a5,5,0,0,1,5,-5z" stroke-width="3"></path><g id="node_text40" fill="black"><text id="kity_text_354" text-rendering="inherit" font-size="12" dy=".8em" y="75.70000004768372" x="325.5">abySearch.vue</text></g></g><g id="minder_node41"><g id="node_expander40" style="cursor: pointer;" display="none"><path id="kity_path_365" fill="white" stroke="gray" d="M451.5,31.5A6,6,0,1,1,439.5,31.5A6,6,0,1,1,451.5,31.5"></path><path id="kity_path_366" fill="none" stroke="gray"></path></g><path id="node_outline41" fill="none" stroke="none" d="M456.5,20.5h346a5,5,0,0,1,5,5v12a5,5,0,0,1,-5,5h-346a5,5,0,0,1,-5,-5v-12a5,5,0,0,1,5,-5z" stroke-width="3"></path><g id="node_text41" fill="black"><text id="kity_text_362" text-rendering="inherit" font-size="12" dy=".8em" y="23.700000047683716" x="461.5">主页，功能：房源展示、用户添加筛选条件、可跳转至搜索模块</text></g></g><g id="minder_node42"><g id="node_expander41" style="cursor: pointer;" display="none"><path id="kity_path_373" fill="white" stroke="gray" d="M458.5,83.5A6,6,0,1,1,446.5,83.5A6,6,0,1,1,458.5,83.5"></path><path id="kity_path_374" fill="none" stroke="gray"></path></g><path id="node_outline42" fill="none" stroke="none" d="M463.5,72.5h264a5,5,0,0,1,5,5v12a5,5,0,0,1,-5,5h-264a5,5,0,0,1,-5,-5v-12a5,5,0,0,1,5,-5z" stroke-width="3"></path><g id="node_text42" fill="black"><text id="kity_text_370" text-rendering="inherit" font-size="12" dy=".8em" y="75.70000004768372" x="468.5">搜索页，功能：根据用户输入地理位置筛选房源</text></g></g><g id="minder_node43"><g id="node_expander42" style="cursor: pointer;" display="none"><path id="kity_path_381" fill="white" stroke="gray" d="M472.5,135.5A6,6,0,1,1,460.5,135.5A6,6,0,1,1,472.5,135.5"></path><path id="kity_path_382" fill="none" stroke="gray"></path></g><path id="node_outline43" fill="none" stroke="none" d="M477.5,124.5h192a5,5,0,0,1,5,5v12a5,5,0,0,1,-5,5h-192a5,5,0,0,1,-5,-5v-12a5,5,0,0,1,5,-5z" stroke-width="3"></path><g id="node_text43" fill="black"><text id="kity_text_378" text-rendering="inherit" font-size="12" dy=".8em" y="127.70000004768372" x="482.5">房源列表页，功能：展示搜索结果</text></g></g><g id="minder_node44"><g id="node_expander43" style="cursor: pointer;" display="none"><path id="kity_path_389" fill="white" stroke="gray" d="M488.5,187.5A6,6,0,1,1,476.5,187.5A6,6,0,1,1,488.5,187.5"></path><path id="kity_path_390" fill="none" stroke="gray"></path></g><path id="node_outline44" fill="none" stroke="none" d="M493.5,176.5h479a5,5,0,0,1,5,5v12a5,5,0,0,1,-5,5h-479a5,5,0,0,1,-5,-5v-12a5,5,0,0,1,5,-5z" stroke-width="3"></path><g id="node_text44" fill="black"><text id="kity_text_386" text-rendering="inherit" font-size="12" dy=".8em" y="179.70000004768372" x="498.5">房源详情页，功能：展示房源详细信息，若用户条件满足入住规定，可点击跳转至订单页</text></g></g><g id="minder_node45"><g id="node_expander44" style="cursor: pointer;" display="none"><path id="kity_path_397" fill="white" stroke="gray" d="M453.5,239.5A6,6,0,1,1,441.5,239.5A6,6,0,1,1,453.5,239.5"></path><path id="kity_path_398" fill="none" stroke="gray"></path></g><path id="node_outline45" fill="none" stroke="none" d="M458.5,228.5h276a5,5,0,0,1,5,5v12a5,5,0,0,1,-5,5h-276a5,5,0,0,1,-5,-5v-12a5,5,0,0,1,5,-5z" stroke-width="3"></path><g id="node_text45" fill="black"><text id="kity_text_394" text-rendering="inherit" font-size="12" dy=".8em" y="231.70000004768372" x="463.5">订单页，功能：交易前的信息填写以及确认等步骤</text></g></g><g id="minder_node46"><g id="node_expander45" style="cursor: pointer;" display="none"><path id="kity_path_405" fill="white" stroke="gray" d="M440.5,291.5A6,6,0,1,1,428.5,291.5A6,6,0,1,1,440.5,291.5"></path><path id="kity_path_406" fill="none" stroke="gray"></path></g><path id="node_outline46" fill="none" stroke="none" d="M445.5,280.5h204a5,5,0,0,1,5,5v12a5,5,0,0,1,-5,5h-204a5,5,0,0,1,-5,-5v-12a5,5,0,0,1,5,-5z" stroke-width="3"></path><g id="node_text46" fill="black"><text id="kity_text_402" text-rendering="inherit" font-size="12" dy=".8em" y="283.7000000476837" x="450.5">支付页，功能：完成付款，订单完成</text></g></g><g id="minder_node47"><g id="node_expander46" style="cursor: pointer;" display="none"><path id="kity_path_413" fill="white" stroke="gray" d="M478.5,343.5A6,6,0,1,1,466.5,343.5A6,6,0,1,1,478.5,343.5"></path><path id="kity_path_414" fill="none" stroke="gray"></path></g><path id="node_outline47" fill="none" stroke="none" d="M483.5,332.5h358a5,5,0,0,1,5,5v12a5,5,0,0,1,-5,5h-358a5,5,0,0,1,-5,-5v-12a5,5,0,0,1,5,-5z" stroke-width="3"></path><g id="node_text47" fill="black"><text id="kity_text_410" text-rendering="inherit" font-size="12" dy=".8em" y="335.7000000476837" x="488.5">收藏页，功能：用户点击房源的收藏按钮可将该房源添加至本页面</text></g></g><g id="minder_node48"><g id="node_expander47" style="cursor: pointer;" display="none"><path id="kity_path_421" fill="white" stroke="gray" d="M481.5,395.5A6,6,0,1,1,469.5,395.5A6,6,0,1,1,481.5,395.5"></path><path id="kity_path_422" fill="none" stroke="gray"></path></g><path id="node_outline48" fill="none" stroke="none" d="M486.5,384.5h357a5,5,0,0,1,5,5v12a5,5,0,0,1,-5,5h-357a5,5,0,0,1,-5,-5v-12a5,5,0,0,1,5,-5z" stroke-width="3"></path><g id="node_text48" fill="black"><text id="kity_text_418" text-rendering="inherit" font-size="12" dy=".8em" y="387.7000000476837" x="491.5">故事页，功能：仅作为app主界面的五个页面之一，具体功能无。</text></g></g><g id="minder_node49"><g id="node_expander48" style="cursor: pointer;" display="none"><path id="kity_path_429" fill="white" stroke="gray" d="M475.5,447.5A6,6,0,1,1,463.5,447.5A6,6,0,1,1,475.5,447.5"></path><path id="kity_path_430" fill="none" stroke="gray"></path></g><path id="node_outline49" fill="none" stroke="none" d="M480.5,436.5h357a5,5,0,0,1,5,5v12a5,5,0,0,1,-5,5h-357a5,5,0,0,1,-5,-5v-12a5,5,0,0,1,5,-5z" stroke-width="3"></path><g id="node_text49" fill="black"><text id="kity_text_426" text-rendering="inherit" font-size="12" dy=".8em" y="439.7000000476837" x="485.5">消息页，功能：仅作为app主界面的五个页面之一，具体功能无。</text></g></g><g id="minder_node50"><g id="node_expander49" style="cursor: pointer;" display="none"><path id="kity_path_437" fill="white" stroke="gray" d="M469.5,499.5A6,6,0,1,1,457.5,499.5A6,6,0,1,1,469.5,499.5"></path><path id="kity_path_438" fill="none" stroke="gray"></path></g><path id="node_outline50" fill="none" stroke="none" d="M474.5,488.5h381a5,5,0,0,1,5,5v12a5,5,0,0,1,-5,5h-381a5,5,0,0,1,-5,-5v-12a5,5,0,0,1,5,-5z" stroke-width="3"></path><g id="node_text50" fill="black"><text id="kity_text_434" text-rendering="inherit" font-size="12" dy=".8em" y="491.7000000476837" x="479.5">个人中心页，功能：仅作为app主界面的五个页面之一，具体功能无。</text></g></g></g></g></svg>